<?xml version="1.0" encoding="UTF-8"?>
<svg baseProfile="full" version="1.1" viewBox="0 0 20 20" xmlns="http://www.w3.org/2000/svg"><g transform="scale(.75)"><svg width="26.667" height="26.667" version="1.1" viewBox="0 0 26.666668 26.666668" xml:space="preserve" xmlns="http://www.w3.org/2000/svg" xmlns:cc="http://creativecommons.org/ns#" xmlns:dc="http://purl.org/dc/elements/1.1/" xmlns:rdf="http://www.w3.org/1999/02/22-rdf-syntax-ns#" xmlns:svg="http://www.w3.org/2000/svg"><g transform="matrix(1.3333 0 0 -1.3333 0 26.667)"><path d="m0 0h20v20h-20z" fill="#9e324a"/></g></svg></g><svg width="20px" height="20px" version="1.1" viewBox="0 0 60.0 60.0" xmlns="http://www.w3.org/2000/svg"><svg width="60px" height="60px" enable-background="new 0 0 60 60" version="1.1" viewBox="0 0 60 60" xml:space="preserve" xmlns="http://www.w3.org/2000/svg" xmlns:xlink="http://www.w3.org/1999/xlink">
<path d="m37.99 40.801l1 10c0.10986 1.0996-0.69189 2.0791-1.791 2.1895-0.067871 0.006836-0.13525 0.0097657-0.20166 0.0097657-1.0151 0-1.8843-0.76953-1.9878-1.8008l-0.95312-9.5352-4.165-6.6641h-1.0815l-0.81982 8.1992c-0.036621 0.3623-0.17139 0.70898-0.39014 1.001l-6 8c-0.66211 0.88379-1.916 1.0645-2.8003 0.39941-0.8833-0.66211-1.0625-1.916-0.3999-2.7998l5.6655-7.5537 0.94434-9.4453c0.10254-1.022 0.96289-1.8008 1.9902-1.8008h4c0.68945 0 1.3306 0.35547 1.6958 0.93994l5 8.0005c0.16309 0.25977 0.26367 0.55469 0.29443 0.86035zm4.6211-14.045l-6.5298-2.9155-3.7578-7.0459c-0.26074-0.48877-0.76953-0.79395-1.3237-0.79395h-2c-0.37549 0-0.73682 0.14062-1.0137 0.39404l-6 5.5c-0.15674 0.14404-0.28125 0.31934-0.36523 0.51514l-3 7c-0.32617 0.76123 0.026367 1.6431 0.78809 1.9697 0.19238 0.08252 0.39307 0.12158 0.59033 0.12158 0.58154 0 1.1353-0.34082 1.3794-0.90967l2.8726-6.7031 2.0482-1.8776-0.78796 6.3038c-0.053711 0.42676 0.079102 0.85596 0.36377 1.1787s0.69434 0.50732 1.1245 0.50732h3.5c0.75635 0 1.3945-0.56348 1.4883-1.314l0.62231-4.9784 1.0657 1.9984c0.15723 0.29395 0.40771 0.52783 0.7124 0.66357l7 3.125c0.75732 0.33838 1.6431-0.0019531 1.981-0.7583s-0.0014648-1.6436-0.7583-1.981zm-11.112-11.755c1.9341 0 3.5005-1.5664 3.5005-3.5s-1.5664-3.5-3.5005-3.5c-1.9331 0-3.4995 1.5664-3.4995 3.5s1.5664 3.5 3.4995 3.5z" fill="#fff"/>
</svg></svg></svg>
